<svg width="26" height="27" viewBox="0 0 26 27" fill="none" xmlns="http://www.w3.org/2000/svg">
<path d="M22.2325 0C20.1551 0 18.465 1.63592 18.465 3.64672C18.465 4.8566 19.0821 5.92314 20.0221 6.58689L15.9971 13.0798L7.54673 13.0826C7.54193 13.0834 7.53819 13.0859 7.53348 13.0869C7.51661 11.09 5.83442 9.47009 3.76748 9.47009C1.69009 9.47009 0 11.106 0 13.1168C0 15.1276 1.69009 16.7635 3.76748 16.7635C5.61079 16.7635 7.14692 15.4743 7.4702 13.7792C7.51914 13.7968 7.57264 13.81 7.63061 13.8205L15.9926 13.8148L19.7822 20.1852C18.6316 20.8101 17.8425 21.9879 17.8425 23.3533C17.8425 25.3641 19.5326 27 21.61 27C23.6874 27 25.3775 25.3641 25.3775 23.3533C25.3775 21.3425 23.6874 19.7066 21.61 19.7066C21.2113 19.7066 20.8348 19.783 20.4739 19.8946L16.6475 13.453L20.6755 6.95869C21.1512 7.16903 21.6763 7.29345 22.2325 7.29345C24.3099 7.29345 26 5.65753 26 3.64672C26 1.63592 24.3099 0 22.2325 0ZM22.2325 0.729345C23.894 0.729345 25.2465 2.03779 25.2465 3.64672C25.2465 5.25566 23.8947 6.5641 22.2325 6.5641C20.5703 6.5641 19.2185 5.25566 19.2185 3.64672C19.2185 2.03779 20.5703 0.729345 22.2325 0.729345ZM3.76748 10.1994C5.42893 10.1994 6.78146 11.5079 6.78146 13.1168C6.78146 14.7257 5.42969 16.0342 3.76748 16.0342C2.10527 16.0342 0.753495 14.7257 0.753495 13.1168C0.753495 11.5079 2.10527 10.1994 3.76748 10.1994ZM21.6012 20.4359C23.2634 20.4359 24.6152 21.7443 24.6152 23.3533C24.6152 24.9622 23.2634 26.2707 21.6012 26.2707C19.939 26.2707 18.5872 24.9622 18.5872 23.3533C18.5872 21.7443 19.939 20.4359 21.6012 20.4359Z" fill="#0A0A0A"/>
</svg>
