<svg width="26" height="27" viewBox="0 0 26 27" fill="none" xmlns="http://www.w3.org/2000/svg">
<path d="M13 0C12.4746 0 11.949 0.223691 11.5849 0.671696L10.1894 2.38841C9.83361 2.8254 9.25189 3.01286 8.70601 2.8672L6.5625 2.29404C5.4443 1.99489 4.33176 2.79791 4.27246 3.9483L4.15942 6.15351C4.13013 6.71485 3.77059 7.207 3.24257 7.40809L1.16884 8.19636C0.0870794 8.60848 -0.336375 9.90778 0.295245 10.8734L1.50516 12.7248C1.81311 13.1959 1.81311 13.8038 1.50516 14.2749L0.295245 16.1249C-0.336375 17.0905 0.0870794 18.3898 1.16884 18.8019L3.24257 19.5916C3.77059 19.7927 4.13013 20.2848 4.15942 20.8462L4.27246 23.05C4.33176 24.2004 5.44358 25.0034 6.5625 24.7043L8.70601 24.1311C9.25189 23.9847 9.83293 24.1729 10.188 24.6099L11.5849 26.328C12.3137 27.224 13.687 27.224 14.4151 26.328L15.8106 24.6099C16.1664 24.1729 16.7481 23.9854 17.294 24.1311L19.4375 24.7043C20.5557 25.0034 21.6682 24.2004 21.7275 23.05L21.8406 20.8462C21.8699 20.2848 22.2294 19.7927 22.7574 19.5916L24.8312 18.8019C25.9129 18.3898 26.3364 17.0905 25.7048 16.1249L24.4948 14.2749C24.1869 13.8038 24.1869 13.1959 24.4948 12.7248L25.7048 10.8734C26.3364 9.90778 25.9129 8.60848 24.8312 8.19636L22.7574 7.4067C22.2294 7.20561 21.8699 6.71346 21.8406 6.15213L21.7275 3.9483C21.6682 2.79791 20.5564 1.99489 19.4375 2.29404L17.294 2.8672C16.7481 3.01357 16.1671 2.8254 15.812 2.38841L14.4151 0.671696C14.0507 0.223691 13.5254 0 13 0ZM13 0.720269C13.3292 0.720269 13.6579 0.861492 13.8862 1.14216L15.2579 2.82834C15.791 3.48418 16.6622 3.76469 17.481 3.54584L19.5868 2.98377C20.2878 2.7969 20.9843 3.29996 21.0214 4.02046L21.1344 6.18543C21.178 7.02744 21.716 7.76602 22.5076 8.06729L24.5437 8.84169C25.2218 9.09962 25.488 9.91486 25.0921 10.5195L23.9031 12.3362C23.4409 13.0432 23.4409 13.9551 23.9031 14.6621L25.0921 16.4788C25.488 17.0834 25.2218 17.8987 24.5437 18.1566L22.5076 18.931C21.716 19.2323 21.178 19.9709 21.1344 20.8129L21.0214 22.9778C20.9835 23.6991 20.2878 24.2021 19.5868 24.0145L17.481 23.4525C16.6622 23.2336 15.791 23.5141 15.2579 24.17L13.8862 25.8561C13.4296 26.4175 12.5704 26.4175 12.1138 25.8561L10.7421 24.17C10.209 23.5141 9.33783 23.2336 8.51901 23.4525L6.41318 24.0145C5.71225 24.2014 5.01574 23.6983 4.97859 22.9778L4.86555 20.8129C4.82197 19.9709 4.28404 19.2323 3.49237 18.931L1.45631 18.1566C0.778249 17.8987 0.512041 17.0834 0.907876 16.4788L2.09685 14.6621C2.55914 13.9551 2.55914 13.0432 2.09685 12.3362L0.907876 10.5195C0.512041 9.91486 0.778249 9.09962 1.45631 8.84169L3.49237 8.06729C4.28404 7.76602 4.82197 7.02744 4.86555 6.18543L4.97859 4.02046C5.01646 3.29925 5.71225 2.79619 6.41318 2.98377L8.51901 3.54584C9.33783 3.76469 10.209 3.48418 10.7421 2.82834L12.1138 1.14216C12.3421 0.861492 12.6708 0.720269 13 0.720269ZM18.4216 7.9979C18.2848 7.97366 18.1391 8.03109 18.0587 8.15473L11.6798 17.9471L7.90917 13.6851C7.77913 13.538 7.55329 13.5239 7.40539 13.6532C7.25677 13.7825 7.24185 14.0071 7.37189 14.1542L11.4552 18.7672C11.523 18.844 11.6202 18.8894 11.7231 18.8894C11.7317 18.8894 11.7389 18.8887 11.7482 18.888C11.859 18.8795 11.9624 18.8201 12.0231 18.727L18.6588 8.54053C18.766 8.37569 18.7185 8.15584 18.5527 8.04925C18.5118 8.02261 18.4672 8.00599 18.4216 7.9979Z" fill="#0A0A0A"/>
</svg>
