<svg width="30" height="26" viewBox="0 0 30 26" fill="none" xmlns="http://www.w3.org/2000/svg">
<path d="M20.0296 26H1.96289C0.639208 26 -0.356296 24.6562 0.121722 23.3487C1.59744 19.3054 5.96757 16.5887 10.9963 16.5887C16.0249 16.5887 20.3951 19.3054 21.8708 23.3487C22.3517 24.6643 21.346 26 20.0296 26ZM10.9963 17.3316C6.27163 17.3316 2.06887 19.815 0.807318 23.6073C0.59243 24.2535 0.988585 25.2571 1.96289 25.2571H20.0296C20.9564 25.2571 21.4461 24.2535 21.1859 23.6065C19.6927 19.9026 15.7216 17.3316 10.9963 17.3316ZM10.9963 14.1143C7.97319 14.1143 5.5144 11.4482 5.5144 8.17143C5.5144 4.89469 7.97319 2.22857 10.9963 2.22857C14.0193 2.22857 16.4781 4.89469 16.4781 8.17143C16.4781 11.4482 14.0193 14.1143 10.9963 14.1143ZM10.9963 2.97143C8.37666 2.97143 6.24531 5.304 6.24531 8.17143C6.24531 11.0389 8.37666 13.3714 10.9963 13.3714C13.6158 13.3714 15.7472 11.0389 15.7472 8.17143C15.7472 5.304 13.6158 2.97143 10.9963 2.97143ZM30 1.59491V6.56314C30 7.44269 29.2961 8.15806 28.4307 8.15806L25.2198 8.17143L21.8298 11.0686C21.7619 11.1258 21.6786 11.1555 21.5945 11.1555C21.5426 11.1555 21.4892 11.1443 21.4403 11.1206C21.3109 11.0604 21.229 10.9289 21.229 10.7848V8.17143C21.0967 8.17143 20.7598 8.15954 20.6034 8.15806C19.7387 8.15211 19.0363 7.44194 19.0363 6.56314V1.59491C19.0363 0.715372 19.7402 0 20.6056 0H28.43C29.2961 0 30 0.715372 30 1.59491ZM29.2691 6.61143V1.56C29.2691 1.10834 28.9095 0.742857 28.4651 0.742857H20.5712C20.1268 0.742857 19.7672 1.10834 19.7672 1.56V6.61143C19.7672 7.06309 20.1268 7.42857 20.5712 7.42857H28.4651C28.9095 7.42857 29.2691 7.06309 29.2691 6.61143Z" fill="#0A0A0A"/>
</svg>
