<svg width="20" height="20" viewBox="0 0 20 20" fill="none" xmlns="http://www.w3.org/2000/svg">
<path d="M7.94141 0C3.56305 0 0 3.56284 0 7.94096C0 12.3191 3.56305 15.8819 7.94141 15.8819C9.87621 15.8819 11.6508 15.1855 13.03 14.0311C13.1976 14.1987 18.6546 19.6559 18.7908 19.7927C19.0673 20.0691 19.5162 20.0691 19.7926 19.7927C20.0691 19.5162 20.0691 19.0673 19.7926 18.7908C19.6565 18.6541 14.1995 13.1969 14.0319 13.0293C15.1863 11.6501 15.8828 9.87565 15.8828 7.94096C15.8828 3.56284 12.3198 0 7.94141 0ZM7.94141 0.588219C11.9957 0.588219 15.2946 3.88695 15.2946 7.94096C15.2946 11.995 11.9957 15.2937 7.94141 15.2937C3.88717 15.2937 0.588253 11.995 0.588253 7.94096C0.588253 3.88695 3.88717 0.588219 7.94141 0.588219Z" fill="#0A0A0A"/>
</svg>
