<svg width="65" height="67" viewBox="0 0 65 67" fill="none" xmlns="http://www.w3.org/2000/svg">
<path d="M53.0833 58.625L36.0208 41.0375C34.6667 42.1542 33.1094 43.0382 31.349 43.6896C29.5885 44.341 27.7153 44.6667 25.7292 44.6667C20.809 44.6667 16.645 42.9102 13.237 39.3974C9.82899 35.8846 8.125 31.5924 8.125 26.5208C8.125 21.4493 9.82899 17.1571 13.237 13.6443C16.645 10.1314 20.809 8.375 25.7292 8.375C30.6493 8.375 34.8134 10.1314 38.2214 13.6443C41.6293 17.1571 43.3333 21.4493 43.3333 26.5208C43.3333 28.5681 43.0174 30.499 42.3854 32.3135C41.7535 34.1281 40.8958 35.7333 39.8125 37.1292L56.875 54.7167L53.0833 58.625ZM25.7292 39.0833C29.1146 39.0833 31.9922 37.862 34.362 35.4193C36.7318 32.9766 37.9167 30.0104 37.9167 26.5208C37.9167 23.0312 36.7318 20.0651 34.362 17.6224C31.9922 15.1797 29.1146 13.9583 25.7292 13.9583C22.3438 13.9583 19.4661 15.1797 17.0964 17.6224C14.7266 20.0651 13.5417 23.0312 13.5417 26.5208C13.5417 30.0104 14.7266 32.9766 17.0964 35.4193C19.4661 37.862 22.3438 39.0833 25.7292 39.0833Z" fill="#1D1B20"/>
</svg>
