<svg width="51" height="50" viewBox="0 0 51 50" fill="none" xmlns="http://www.w3.org/2000/svg">
<path d="M36.125 43.75V39.5833C36.125 37.3732 35.2295 35.2536 33.6354 33.6908C32.0413 32.128 29.8793 31.25 27.625 31.25H10.625C8.37066 31.25 6.20865 32.128 4.61459 33.6908C3.02053 35.2536 2.125 37.3732 2.125 39.5833V43.75M48.875 43.75V39.5833C48.8736 37.7369 48.2468 35.9433 47.0929 34.484C45.939 33.0247 44.3235 31.9824 42.5 31.5208M34 6.52083C35.8284 6.97979 37.449 8.02229 38.6062 9.48398C39.7635 10.9457 40.3917 12.7434 40.3917 14.5937C40.3917 16.4441 39.7635 18.2418 38.6062 19.7035C37.449 21.1652 35.8284 22.2077 34 22.6667M27.625 14.5833C27.625 19.1857 23.8194 22.9167 19.125 22.9167C14.4306 22.9167 10.625 19.1857 10.625 14.5833C10.625 9.98096 14.4306 6.25 19.125 6.25C23.8194 6.25 27.625 9.98096 27.625 14.5833Z" stroke="#1E1E1E" stroke-width="4" stroke-linecap="round" stroke-linejoin="round"/>
</svg>
